<?xml version="1.0" standalone="no"?>
<!DOCTYPE svg PUBLIC "-//W3C//DTD SVG 20010904//EN"
 "http://www.w3.org/TR/2001/REC-SVG-20010904/DTD/svg10.dtd">
<svg version="1.0" xmlns="http://www.w3.org/2000/svg"
 width="3840.000000pt" height="2160.000000pt" viewBox="0 0 3840.000000 2160.000000"
 preserveAspectRatio="xMidYMid meet">
<metadata>
Created by potrace 1.16, written by Peter Selinger 2001-2019
</metadata>
<g transform="translate(0.000000,2160.000000) scale(0.100000,-0.100000)"
fill="#000000" stroke="none">
<path d="M22715 21190 c-49 -5 -173 -16 -275 -25 -102 -9 -201 -20 -220 -25
-19 -5 -73 -14 -120 -20 -84 -12 -254 -49 -525 -115 -134 -33 -405 -120 -510
-164 -27 -11 -93 -37 -145 -57 -52 -20 -120 -49 -151 -64 -31 -15 -73 -33 -95
-40 -105 -34 -557 -286 -747 -417 -42 -29 -79 -53 -82 -53 -25 0 -448 -330
-634 -494 -289 -256 -1012 -966 -1442 -1416 -118 -123 -251 -263 -295 -310
-45 -47 -101 -107 -125 -134 -24 -27 -68 -74 -97 -105 -30 -31 -86 -90 -125
-131 -39 -41 -114 -120 -167 -175 -52 -55 -144 -154 -205 -220 -60 -66 -142
-154 -180 -195 -39 -41 -96 -102 -126 -135 -31 -33 -116 -125 -190 -205 -122
-133 -214 -233 -369 -404 -30 -33 -84 -92 -120 -131 -90 -97 -256 -279 -310
-340 -25 -27 -47 -52 -50 -55 -3 -3 -41 -45 -85 -95 -43 -49 -111 -124 -151
-165 -39 -41 -86 -93 -105 -115 -59 -70 -300 -337 -388 -430 -109 -114 -159
-169 -251 -275 -41 -47 -81 -92 -90 -100 -9 -8 -99 -105 -200 -215 -102 -110
-191 -207 -200 -215 -8 -8 -37 -40 -64 -70 -27 -30 -97 -107 -155 -169 -58
-63 -135 -147 -171 -185 -36 -39 -133 -147 -215 -241 -82 -93 -201 -224 -265
-290 -290 -302 -416 -436 -539 -575 -105 -119 -189 -208 -355 -380 -168 -174
-231 -242 -341 -365 -49 -55 -103 -114 -119 -130 -17 -17 -69 -73 -116 -125
-129 -143 -260 -287 -361 -395 -37 -38 -104 -114 -149 -167 -45 -54 -86 -98
-90 -98 -4 0 -52 -50 -106 -111 -54 -61 -104 -117 -109 -123 -183 -198 -405
-490 -534 -701 -41 -66 -84 -136 -96 -155 -57 -90 -275 -505 -275 -524 0 -2
-25 -57 -55 -121 -30 -65 -55 -120 -55 -124 0 -7 -59 -151 -85 -206 -7 -16
-48 -133 -90 -260 -73 -220 -122 -400 -179 -660 -15 -66 -35 -158 -46 -205
-11 -47 -27 -148 -35 -225 -9 -77 -22 -185 -30 -240 -14 -97 -24 -205 -46
-525 -18 -251 3 -607 61 -1035 68 -506 194 -986 370 -1415 28 -69 60 -148 71
-177 32 -84 281 -577 364 -723 42 -73 106 -179 142 -234 37 -56 82 -126 102
-156 19 -30 40 -60 46 -67 5 -6 26 -35 45 -63 19 -29 62 -86 94 -128 75 -97
169 -215 176 -222 3 -3 41 -48 85 -100 193 -231 653 -667 928 -880 55 -43 82
-62 215 -156 66 -47 278 -181 367 -232 33 -19 76 -44 95 -55 52 -30 376 -191
445 -222 222 -98 710 -265 935 -320 168 -41 430 -96 480 -101 30 -3 116 -14
190 -25 74 -11 218 -24 320 -29 102 -5 212 -12 245 -15 149 -12 323 -15 475
-6 343 21 610 42 632 50 13 5 66 14 118 21 284 36 607 114 900 215 69 24 148
50 175 59 73 23 167 55 190 66 11 5 65 27 120 48 55 22 143 60 195 85 52 24
115 54 140 65 25 12 63 32 85 45 22 13 67 39 100 57 140 76 155 85 155 93 0 4
6 7 13 7 7 0 44 21 82 46 39 25 104 66 145 91 109 66 338 235 410 303 9 8 43
38 75 65 216 182 810 758 1110 1075 44 47 152 161 240 255 88 93 203 214 256
270 144 150 269 282 336 355 33 36 117 128 188 205 71 77 206 221 300 320 94
99 203 214 241 255 75 81 188 202 299 320 69 75 209 229 247 272 11 13 45 50
76 83 31 33 81 87 111 120 30 33 80 87 110 120 31 33 81 87 111 120 30 33 98
108 151 165 53 58 127 141 165 185 38 44 78 89 89 101 21 22 131 143 305 334
58 63 139 151 180 195 42 44 109 118 150 165 41 47 105 116 141 155 37 38 118
129 180 200 62 72 116 132 119 135 3 3 39 43 80 90 109 123 202 224 425 460
116 124 236 254 390 424 50 55 99 109 110 121 11 11 59 63 106 115 288 318
441 485 508 555 42 44 96 103 120 130 24 28 78 86 120 131 42 44 94 100 115
125 22 24 67 73 100 109 34 36 111 119 171 185 233 254 372 403 485 521 51 54
133 140 180 189 47 50 153 166 235 260 83 93 175 197 205 230 31 33 89 98 130
145 41 46 84 94 95 106 136 143 433 534 544 714 144 234 365 678 466 935 15
39 33 84 40 100 20 45 111 320 136 411 55 204 143 619 154 734 4 36 16 124 26
195 48 316 61 1322 24 1749 -13 144 -87 548 -141 771 -47 192 -117 431 -164
560 -10 28 -33 91 -50 140 -71 203 -309 702 -436 913 -79 131 -215 343 -234
365 -6 6 -41 55 -78 108 -37 53 -94 129 -127 170 -32 41 -75 94 -94 119 -66
84 -258 295 -412 451 -128 129 -201 199 -373 354 -11 11 -231 185 -301 240
-124 96 -395 272 -690 447 -79 47 -341 177 -430 213 -38 16 -74 32 -80 36 -17
12 -228 97 -357 143 -157 57 -321 105 -528 155 -337 81 -411 92 -835 122 -186
14 -948 20 -1070 9z m825 -905 c182 -18 419 -51 505 -69 39 -8 104 -21 145
-29 41 -8 104 -22 140 -31 36 -10 85 -21 110 -26 97 -19 324 -87 387 -116 17
-8 36 -14 42 -14 6 0 30 -9 53 -19 326 -147 429 -196 563 -270 28 -16 100 -54
160 -86 126 -66 396 -241 507 -329 14 -12 35 -28 46 -36 270 -207 700 -632
836 -828 21 -31 61 -82 87 -115 27 -32 74 -97 105 -145 31 -48 73 -111 92
-141 95 -143 197 -317 245 -416 73 -149 127 -264 127 -270 0 -5 44 -105 90
-200 41 -88 101 -241 122 -315 11 -36 32 -114 49 -174 16 -60 33 -114 36 -120
4 -5 10 -28 14 -51 7 -32 37 -164 73 -315 8 -33 26 -171 37 -285 6 -66 15
-124 19 -130 16 -22 35 -388 35 -685 -1 -307 -12 -517 -40 -750 -7 -63 -19
-164 -25 -225 -7 -60 -18 -135 -26 -165 -25 -102 -55 -235 -68 -300 -7 -36
-22 -93 -34 -128 -12 -34 -22 -69 -22 -78 0 -8 -5 -25 -12 -37 -6 -12 -13 -29
-14 -37 -3 -19 -42 -138 -54 -165 -5 -11 -16 -45 -25 -75 -9 -30 -20 -62 -24
-70 -4 -8 -25 -55 -46 -105 -21 -49 -62 -141 -91 -204 -30 -62 -54 -115 -54
-118 0 -2 -19 -36 -41 -76 -23 -40 -54 -94 -68 -122 -57 -105 -143 -245 -193
-312 -21 -29 -38 -56 -38 -60 0 -5 -8 -16 -17 -25 -10 -8 -29 -31 -43 -49 -14
-19 -53 -66 -87 -106 -35 -40 -63 -74 -63 -76 0 -2 -26 -30 -57 -63 -32 -32
-73 -77 -92 -99 -47 -56 -262 -284 -411 -435 -166 -169 -518 -535 -611 -635
-41 -44 -126 -134 -189 -200 -237 -247 -459 -483 -555 -589 -6 -6 -100 -108
-210 -226 -110 -118 -240 -260 -288 -315 -47 -55 -91 -104 -96 -110 -6 -5 -38
-41 -73 -79 -35 -39 -99 -108 -144 -155 -45 -48 -128 -138 -184 -201 -57 -63
-138 -152 -179 -197 -42 -45 -92 -100 -111 -121 -48 -53 -259 -279 -345 -368
-150 -155 -175 -183 -175 -193 0 -6 -4 -11 -9 -11 -5 0 -43 -34 -85 -75 l-75
-74 -35 42 c-82 99 -854 842 -1006 968 -36 29 -89 77 -118 105 -29 28 -139
134 -245 235 -223 214 -212 204 -778 764 -575 570 -793 782 -914 890 -118 105
-868 831 -1105 1070 -250 252 -507 496 -690 657 -91 79 -217 196 -281 259 -64
63 -181 175 -260 249 -79 74 -227 217 -330 317 -102 101 -264 258 -360 350
-181 175 -567 552 -895 878 -189 187 -334 345 -334 363 0 5 21 31 48 58 26 27
82 87 125 134 44 47 109 117 146 155 36 39 89 97 116 130 27 33 55 63 61 67 7
5 54 54 105 110 51 57 124 137 163 179 213 227 329 351 386 414 35 39 125 135
200 215 428 456 536 572 655 705 102 115 236 256 446 470 91 94 191 197 220
230 184 204 249 275 328 357 46 49 91 98 100 110 8 12 35 42 61 67 25 25 100
105 167 176 339 365 662 672 913 869 41 33 84 68 95 78 11 10 40 32 65 49 25
16 66 44 91 62 164 113 434 266 654 369 332 156 598 254 930 342 199 53 277
68 520 101 99 14 194 28 210 31 141 31 669 43 895 19z m-8417 -6446 c12 -7 30
-19 39 -28 9 -9 58 -52 108 -96 109 -95 172 -155 473 -451 125 -123 227 -221
227 -218 0 4 30 -23 68 -58 37 -35 98 -93 136 -129 38 -35 92 -86 121 -114
140 -135 589 -570 749 -726 207 -202 249 -242 407 -394 326 -312 601 -578 757
-730 326 -319 363 -355 368 -355 2 0 75 -69 162 -153 86 -85 204 -198 262
-253 58 -54 173 -165 255 -245 83 -80 172 -165 198 -190 27 -24 98 -92 159
-151 61 -60 114 -108 119 -108 4 0 16 -10 26 -22 10 -13 41 -43 68 -67 28 -24
145 -137 261 -250 116 -113 262 -253 324 -311 62 -58 171 -161 242 -230 72
-69 167 -159 211 -200 130 -118 567 -559 567 -571 0 -6 -11 -20 -26 -31 -14
-11 -42 -43 -64 -72 -21 -28 -50 -64 -65 -81 -15 -16 -41 -47 -58 -69 -18 -21
-48 -55 -67 -76 -19 -20 -59 -64 -89 -96 -29 -32 -121 -129 -205 -215 -83 -85
-182 -190 -221 -234 -133 -149 -150 -168 -190 -210 -22 -23 -67 -71 -99 -106
-69 -73 -411 -433 -471 -495 -22 -23 -69 -72 -105 -110 -65 -70 -307 -327
-410 -436 -30 -32 -71 -75 -90 -96 -19 -21 -78 -85 -130 -142 -52 -57 -124
-136 -159 -174 -36 -39 -135 -145 -220 -235 -86 -91 -192 -203 -236 -250 -44
-46 -103 -109 -132 -139 -29 -30 -53 -58 -55 -62 -4 -12 -211 -230 -287 -303
-83 -80 -101 -97 -202 -187 -46 -41 -95 -86 -109 -100 -44 -45 -183 -164 -239
-205 -30 -21 -68 -52 -85 -67 -31 -28 -297 -210 -346 -236 -14 -7 -34 -21 -45
-31 -11 -9 -39 -26 -63 -36 -24 -10 -46 -23 -50 -29 -8 -12 -45 -33 -192 -108
-52 -26 -100 -48 -107 -48 -6 0 -48 -16 -92 -35 -43 -19 -87 -35 -96 -35 -9 0
-29 -6 -43 -14 -31 -16 -86 -35 -192 -66 -41 -12 -102 -30 -135 -41 -123 -37
-243 -65 -444 -100 -469 -83 -830 -101 -1181 -58 -284 34 -339 42 -491 68
-124 21 -424 93 -457 109 -9 5 -62 19 -117 32 -55 13 -104 26 -110 31 -5 4
-39 15 -75 24 -36 10 -90 29 -120 42 -54 25 -106 47 -145 63 -115 47 -390 185
-421 210 -11 9 -39 26 -64 39 -25 13 -52 30 -61 37 -8 8 -21 14 -28 14 -6 0
-47 25 -91 55 -43 31 -105 70 -137 87 -32 16 -67 38 -78 47 -11 10 -31 23 -45
29 -32 15 -59 33 -84 55 -11 9 -25 17 -32 17 -7 0 -19 8 -26 18 -7 9 -40 37
-73 62 -33 25 -62 47 -65 50 -3 3 -19 16 -37 28 -109 76 -525 484 -635 622
-33 41 -70 86 -82 100 -12 14 -39 52 -60 84 -21 33 -45 66 -53 74 -8 8 -26 34
-40 56 -14 23 -29 43 -32 46 -10 7 -81 118 -113 176 -53 95 -80 139 -94 155
-8 8 -14 20 -14 26 0 6 -6 16 -14 22 -8 7 -17 24 -21 39 -3 15 -17 50 -31 79
-13 28 -24 57 -24 63 0 7 -6 24 -13 38 -45 90 -125 366 -146 507 -22 141 -42
384 -45 520 -3 201 11 678 23 760 19 132 42 270 56 335 8 36 24 115 35 175 20
113 76 328 149 580 26 89 115 345 129 371 6 10 32 66 57 124 46 103 79 170
177 360 76 146 78 150 135 234 29 43 53 80 53 83 0 2 24 38 53 80 28 41 57 84
63 95 6 10 21 29 33 42 11 12 21 28 21 34 0 6 11 19 25 28 14 9 25 22 25 29 0
6 10 20 21 31 12 10 41 45 64 77 23 31 73 92 111 133 38 42 73 83 77 90 4 8
15 14 22 14 8 0 14 4 12 8 -2 10 216 240 523 552 105 107 282 289 393 405 282
293 483 500 688 710 96 99 215 223 264 275 200 216 292 314 334 353 70 65 78
74 221 231 74 82 164 179 199 215 113 117 354 375 416 445 33 37 103 113 156
169 52 56 142 152 200 214 57 61 105 112 107 112 2 1 13 -4 25 -10z"/>
</g>
</svg>
